<?xml version="1.0" encoding="utf-8"?>
<!-- Svg Vector Icons : http://www.onlinewebfonts.com/icon -->
<!DOCTYPE svg PUBLIC "-//W3C//DTD SVG 1.1//EN" "http://www.w3.org/Graphics/SVG/1.1/DTD/svg11.dtd">
<svg version="1.1" xmlns="http://www.w3.org/2000/svg" xmlns:xlink="http://www.w3.org/1999/xlink" x="0px" y="0px" viewBox="0 0 1000 1000" enable-background="new 0 0 1000 1000" xml:space="preserve">
<metadata> Svg Vector Icons : http://www.onlinewebfonts.com/icon </metadata>
<g><g fill="#EDA785" transform="translate(0.000000,511.000000) scale(0.100000,-0.100000)"><path d="M220.6,1490.8c-63.2-9.6-120.6-93.8-120.6-176.1c0-111,67-306.3,149.3-432.6c155.1-239.3,436.5-419.2,769.5-486.2c141.7-28.7,260.3-38.3,532.2-38.3h348.4v-178V3.5L1803.7-31c-124.4-44-273.7-191.4-338.8-333.1c-90-193.3-67-442.2,55.5-625.9c170.4-260.4,524.5-358,805.9-225.9c277.6,130.2,421.1,403.9,373.3,708.3l-17.2,107.2l379,379l379,379h1397.4h1397.4l379-379l379-380.9L6974-515.3c-44-243.1,57.4-493.9,258.4-637.4c116.8-86.1,227.8-120.6,380.9-120.6c225.9,0,409.6,95.7,536,279.5c160.8,237.4,151.2,549.4-26.8,775.3c-65.1,82.3-210.6,183.8-292.9,202.9l-53.6,13.4v179.9v179.9h513c430.7,0,539.8,5.7,693,38.3c438.4,90,769.5,361.8,880.5,723.6c51.7,164.6,49.8,256.5-5.7,319.7c-32.5,40.2-61.3,51.7-118.7,51.7c-99.5,0-153.1-61.3-168.4-193.3c-24.9-201-174.2-386.7-403.9-499.6c-245-120.6-49.8-114.9-4167.3-114.9c-3346.1,0-3767.2,3.8-3899.3,30.6c-377.1,76.6-624,292.9-670,587.7C404.4,1456.4,345,1510,220.6,1490.8z M2741.7,118.3c-132.1-132.1-245-239.3-254.6-239.3c-7.7,0-46,21.1-86.1,45.9c-38.3,26.8-93.8,53.6-122.5,59.3l-53.6,13.4v179.9v179.9h377.1h379L2741.7,118.3z M7450.7,177.7V-2.3L7399-15.7c-30.6-5.7-86.1-32.5-124.4-59.3c-40.2-24.9-78.5-45.9-86.1-45.9c-9.6,0-122.5,107.2-254.6,239.3l-239.3,239.3h379h377.1V177.7z M2226.7-344.9c93.8-55.5,139.7-137.8,147.4-264.2c5.7-95.7,0-126.3-38.3-181.9c-24.9-36.4-74.7-86.1-111-111c-90-61.3-269.9-53.6-354.1,13.4c-116.8,90-160.8,212.5-124.4,346.5C1801.8-337.3,2044.9-237.7,2226.7-344.9z M7787.6-352.6c116.8-70.8,174.2-216.3,139.8-352.2c-38.3-145.5-158.9-239.3-310.1-239.3c-377.1,0-451.8,518.8-91.9,633.6C7596.2-287.5,7714.8-306.6,7787.6-352.6z"/></g></g>
</svg>
